# xmcd
#
# Track frame offsets:
#	150
#	13896
#	25485
#	39430
#	51220
#	65603
#	84485
#	102022
#	116422
#	127159
#	145124
#	157997
#	173084
#	188094
#
# Disc length: 2667 seconds
#
# Revision: 2
# Processed by: cddbd v1.4b42PL1 Copyright (c) Steve Scherf et al.
# Submitted via: EZCDDA 4.3.2
#
DISCID=b80a690e
DTITLE=Reinaldo Creagh- V.T.S. - Boleros de toda una vida
DYEAR=1900
DGENRE=
TTITLE0=Piel Canela
TTITLE1=Toda una vida
TTITLE2=Contigo a la distancia
TTITLE3=Nosotros
TTITLE4=Malditos Celos
TTITLE5=Mosaico de Boleros
TTITLE6=Nuestras Vidas
TTITLE7=Angelitos negros
TTITLE8=Cenizas
TTITLE9=Vereda Tropical
TTITLE10=Como Fue
TTITLE11=La vida es un sueño
TTITLE12=Dos Gardenias
TTITLE13=Quizás´Quizás
EXTD=
EXTT0=
EXTT1=
EXTT2=
EXTT3=
EXTT4=
EXTT5=
EXTT6=
EXTT7=
EXTT8=
EXTT9=
EXTT10=
EXTT11=
EXTT12=
EXTT13=
PLAYORDER=
